# xmcd CD database file
#
# Track frame offsets:
#	150
#	18087
#	38765
#	62155
#	83855
#	104487
#	126405
#	151110
#	178020
#	202320
#	222997
#	240085
#	253560
#	272160
#	294180
#	315730
#
# Disc length: 4534 seconds
#
# Revision: 0
# Processed by: cddbd v1.5PL3 Copyright (c) Steve Scherf et al.
# Submitted via: CDex 1.50Beta7
#
DISCID=df11b410
DTITLE=大橋純子 - The Best Songs Of Junko Ohashi
DYEAR=1998
DGENRE=JPop
TTITLE0=シンプル・ラブ
TTITLE1=たそがれマイ・ラブ
TTITLE2=愛は時を越えて
TTITLE3=Sweet Love
TTITLE4=Celebration
TTITLE5=貴方しか見えない
TTITLE6=恋に溺れて〜Crazy about you〜
TTITLE7=恋人のままでいい
TTITLE8=Time after Time
TTITLE9=片思いだけど
TTITLE10=さよならが言えなくて
TTITLE11=You Are So Beautiful (Reprise)
TTITLE12=How Insensitive
TTITLE13=ビューティフル・ミー
TTITLE14=男と女
TTITLE15=シルエット・ロマンス
EXTD=YEAR: 1998
EXTT0=
EXTT1=
EXTT2=
EXTT3=
EXTT4=
EXTT5=
EXTT6=
EXTT7=
EXTT8=
EXTT9=
EXTT10=
EXTT11=
EXTT12=
EXTT13=
EXTT14=
EXTT15=
PLAYORDER=
